<svg width="30" height="30" viewBox="0 0 30 30" fill="none" xmlns="http://www.w3.org/2000/svg">
<path d="M19.7274 12.2339C20.226 11.3481 20.6417 10.5487 20.8981 9.9403C22.1431 6.98598 20.912 3.58771 17.9026 2.20152C14.8932 0.815325 11.8712 2.25268 10.5449 5.02792C8.00875 3.28762 4.62557 3.54321 2.75985 6.259C0.894121 8.9748 1.47967 12.5227 4.03505 14.4587C5.1948 15.3374 7.48848 16.6323 9.64794 17.7846M20.7296 14.6666C20.1668 11.6427 17.5938 9.43113 14.3542 10.0322C11.1146 10.6333 9.01983 13.5561 9.45779 16.732C9.80966 19.2836 11.7519 25.2703 12.5019 27.5253C12.6042 27.8331 12.6554 27.9869 12.7567 28.0942C12.845 28.1877 12.9623 28.2554 13.0874 28.2851C13.231 28.3192 13.3898 28.2866 13.7075 28.2214C16.0354 27.7434 22.1911 26.432 24.5768 25.461C27.5462 24.2523 29.0786 20.9789 27.9308 17.8707C26.783 14.7625 23.6298 13.642 20.7296 14.6666Z" stroke="#F5562B" stroke-width="2" stroke-linecap="round" stroke-linejoin="round"/>
</svg>
