<svg width="29" height="28" viewBox="0 0 29 28" fill="none" xmlns="http://www.w3.org/2000/svg">
<path d="M14.5 0C6.76719 0 0.5 6.26719 0.5 14C0.5 21.7328 6.76719 28 14.5 28C22.2328 28 28.5 21.7328 28.5 14C28.5 6.26719 22.2328 0 14.5 0ZM10.5844 19.857H7.85547V11.1234H10.5844V19.857ZM9.14609 10.0297H9.12422C8.13437 10.0297 7.49453 9.3625 7.49453 8.51484C7.49453 7.65078 8.15625 7 9.1625 7C10.1687 7 10.7867 7.65078 10.8086 8.51484C10.8141 9.35703 10.1742 10.0297 9.14609 10.0297ZM21.5 19.857H18.4047V15.3398C18.4047 14.1586 17.9234 13.3492 16.857 13.3492C16.0422 13.3492 15.5883 13.8961 15.3805 14.4211C15.3039 14.607 15.3148 14.8695 15.3148 15.1375V19.857H12.2469C12.2469 19.857 12.2852 11.8508 12.2469 11.1234H15.3148V12.4961C15.4953 11.8945 16.4742 11.0414 18.0383 11.0414C19.9797 11.0414 21.5 12.2992 21.5 15.0008V19.857Z" fill="white"/>
</svg>
