<svg width="136" height="40" viewBox="0 0 136 40" fill="none" xmlns="http://www.w3.org/2000/svg">
<path fill-rule="evenodd" clip-rule="evenodd" d="M20.4651 40C31.7677 40 40.9303 31.0457 40.9303 20C40.9303 8.9543 31.7677 0 20.4651 0C9.16255 0 0 8.9543 0 20C0 31.0457 9.16255 40 20.4651 40ZM25.695 37.6497C32.8032 35.5375 36.1126 25.9414 33.0869 16.2161C30.0611 6.49088 21.8459 0.319242 14.7377 2.43139C7.62951 4.54355 4.32006 14.1397 7.34583 23.8649C10.3716 33.5902 18.5868 39.7618 25.695 37.6497Z" fill="#F5562B"/>
<path d="M27.4043 11.7911V23.7786C27.4043 24.9955 27.1458 26.0851 26.6288 27.0475C26.1198 28.0098 25.3483 28.7733 24.3144 29.338C23.2804 29.8948 21.9801 30.1731 20.4132 30.1731C18.1783 30.1731 16.4763 29.5886 15.3071 28.4194C14.146 27.2423 13.5654 25.6795 13.5654 23.7309V11.7911H16.4286V23.4804C16.4286 24.9358 16.7706 26.0095 17.4546 26.7015C18.1386 27.3934 19.1606 27.7394 20.5206 27.7394C21.4591 27.7394 22.2226 27.5764 22.8112 27.2503C23.4077 26.9162 23.8451 26.4311 24.1235 25.7948C24.4098 25.1506 24.553 24.3751 24.553 23.4684V11.7911H27.4043Z" fill="#F5562B"/>
<path d="M74.554 20C74.554 26.7141 70.0888 31.603 63.668 31.603C57.2473 31.603 52.7821 26.7141 52.7821 20C52.7821 13.2859 57.2473 8.39703 63.668 8.39703C70.0888 8.39703 74.554 13.2859 74.554 20ZM55.6828 20C55.6828 25.2474 58.9095 28.9956 63.668 28.9956C68.4266 28.9956 71.6532 25.2474 71.6532 20C71.6532 14.7526 68.4266 11.0044 63.668 11.0044C58.9095 11.0044 55.6828 14.7526 55.6828 20Z" fill="#F5562B"/>
<path d="M78.0073 21.6622V8.59259H80.8428V21.8252C80.8428 26.5511 82.7332 28.9956 86.6769 28.9956C90.6858 28.9956 92.5762 26.5511 92.5762 21.8252V8.59259H95.4117V21.6622C95.4117 28.1807 92.3806 31.603 86.6769 31.603C80.9732 31.603 78.0073 28.1807 78.0073 21.6622Z" fill="#F5562B"/>
<path d="M98.8049 23.9437H101.738C101.966 27.0074 104.346 29.0281 107.833 29.0281C110.897 29.0281 113.08 27.6267 113.08 25.1496C113.08 22.3141 110.278 21.7274 106.823 21.1407C103.14 20.5215 99.359 19.3156 99.359 14.883C99.359 11.0044 102.52 8.39703 107.149 8.39703C112.233 8.39703 115.362 11.2326 115.623 15.3393H112.689C112.363 12.6993 110.245 10.9718 107.149 10.9718C104.183 10.9718 102.195 12.2756 102.195 14.72C102.195 17.4578 104.965 18.0118 108.387 18.5985C112.103 19.2178 115.916 20.4563 115.916 24.8889C115.916 28.8326 112.592 31.603 107.8 31.603C102.227 31.603 98.9679 28.4415 98.8049 23.9437Z" fill="#F5562B"/>
<path d="M118.189 23.9437H121.122C121.35 27.0074 123.729 29.0281 127.217 29.0281C130.28 29.0281 132.464 27.6267 132.464 25.1496C132.464 22.3141 129.661 21.7274 126.206 21.1407C122.523 20.5215 118.743 19.3156 118.743 14.883C118.743 11.0044 121.904 8.39703 126.532 8.39703C131.617 8.39703 134.746 11.2326 135.006 15.3393H132.073C131.747 12.6993 129.629 10.9718 126.532 10.9718C123.566 10.9718 121.578 12.2756 121.578 14.72C121.578 17.4578 124.349 18.0118 127.771 18.5985C131.486 19.2178 135.3 20.4563 135.3 24.8889C135.3 28.8326 131.975 31.603 127.184 31.603C121.611 31.603 118.352 28.4415 118.189 23.9437Z" fill="#F5562B"/>
</svg>
