<svg width="26" height="27" viewBox="0 0 26 27" fill="none" xmlns="http://www.w3.org/2000/svg">
<path d="M7 11H7.01333M13 11H13.0133M19 11H19.0133M6.33333 21V24.114C6.33333 24.8245 6.33333 25.1797 6.47897 25.3622C6.60563 25.5208 6.79769 25.6131 7.00072 25.6129C7.23417 25.6127 7.51156 25.3908 8.06634 24.9469L11.247 22.4024C11.8967 21.8826 12.2216 21.6228 12.5833 21.4379C12.9043 21.274 13.2459 21.1541 13.599 21.0817C13.9969 21 14.4129 21 15.245 21H18.6C20.8402 21 21.9603 21 22.816 20.564C23.5686 20.1805 24.1805 19.5686 24.564 18.816C25 17.9603 25 16.8402 25 14.6V7.4C25 5.15979 25 4.03968 24.564 3.18404C24.1805 2.43139 23.5686 1.81947 22.816 1.43597C21.9603 1 20.8402 1 18.6 1H7.4C5.15979 1 4.03969 1 3.18404 1.43597C2.43139 1.81947 1.81947 2.43139 1.43597 3.18404C1 4.03968 1 5.15979 1 7.4V15.6667C1 16.9066 1 17.5266 1.1363 18.0353C1.50617 19.4156 2.58436 20.4938 3.96472 20.8637C4.47339 21 5.09337 21 6.33333 21ZM7.66667 11C7.66667 11.3682 7.36819 11.6667 7 11.6667C6.63181 11.6667 6.33333 11.3682 6.33333 11C6.33333 10.6318 6.63181 10.3333 7 10.3333C7.36819 10.3333 7.66667 10.6318 7.66667 11ZM13.6667 11C13.6667 11.3682 13.3682 11.6667 13 11.6667C12.6318 11.6667 12.3333 11.3682 12.3333 11C12.3333 10.6318 12.6318 10.3333 13 10.3333C13.3682 10.3333 13.6667 10.6318 13.6667 11ZM19.6667 11C19.6667 11.3682 19.3682 11.6667 19 11.6667C18.6318 11.6667 18.3333 11.3682 18.3333 11C18.3333 10.6318 18.6318 10.3333 19 10.3333C19.3682 10.3333 19.6667 10.6318 19.6667 11Z" stroke="#F5562B" stroke-width="2" stroke-linecap="round" stroke-linejoin="round"/>
</svg>
