<svg width="196" height="211" viewBox="0 0 196 211" fill="none" xmlns="http://www.w3.org/2000/svg">
<path d="M0.126953 107.26C0.159765 106.623 0.343307 106.002 0.662509 105.45C0.98171 104.897 1.42745 104.429 1.9631 104.082L92.4786 51.822C93.0475 51.5329 93.6767 51.3823 94.3148 51.3823C94.9529 51.3823 95.582 51.5329 96.151 51.822L98.2202 53.0155C98.7533 53.3642 99.1968 53.8337 99.5146 54.3859C99.8324 54.938 100.016 55.5573 100.049 56.1935V128.143C100.014 128.778 99.83 129.397 99.5124 129.949C99.1947 130.501 98.7522 130.971 98.2202 131.321L7.69758 183.616C7.12892 183.902 6.50134 184.05 5.86495 184.05C5.22855 184.05 4.60097 183.902 4.03232 183.616L1.9631 182.422C1.42981 182.073 0.985869 181.604 0.66697 181.052C0.348071 180.5 0.163112 179.881 0.126953 179.244V107.26Z" fill="#F5562B"/>
<g opacity="0.7">
<path d="M0.126953 107.26C0.159765 106.623 0.343307 106.002 0.662509 105.45C0.98171 104.897 1.42745 104.429 1.9631 104.082L92.4786 51.822C93.0475 51.5329 93.6767 51.3823 94.3148 51.3823C94.9529 51.3823 95.582 51.5329 96.151 51.822L98.2202 53.0155C98.7533 53.3642 99.1968 53.8337 99.5146 54.3859C99.8324 54.938 100.016 55.5573 100.049 56.1935V128.143C100.014 128.778 99.83 129.397 99.5124 129.949C99.1947 130.501 98.7522 130.971 98.2202 131.321L7.69758 183.616C7.12892 183.902 6.50134 184.05 5.86495 184.05C5.22855 184.05 4.60097 183.902 4.03232 183.616L1.9631 182.422C1.42981 182.073 0.985869 181.604 0.66697 181.052C0.348071 180.5 0.163112 179.881 0.126953 179.244V107.26Z" fill="white"/>
</g>
<path d="M0.663574 105.452L5.86838 108.453L99.5125 54.3785C99.202 53.8216 98.7579 53.3508 98.2201 53.0084L96.1438 51.822C95.5784 51.5297 94.9512 51.3772 94.3147 51.3772C93.6782 51.3772 93.051 51.5297 92.4856 51.822L1.96301 104.082C1.41826 104.418 0.970428 104.89 0.663574 105.452Z" fill="#F5562B"/>
<path opacity="0.8" d="M0.663574 105.452L5.86838 108.453L99.5125 54.3785C99.202 53.8216 98.7579 53.3508 98.2201 53.0084L96.1438 51.822C95.5784 51.5297 94.9512 51.3772 94.3147 51.3772C93.6782 51.3772 93.051 51.5297 92.4856 51.822L1.96301 104.082C1.41826 104.418 0.970428 104.89 0.663574 105.452Z" fill="white"/>
<path opacity="0.1" d="M0.126953 107.253V179.202C0.159765 179.839 0.343307 180.459 0.662509 181.012C0.98171 181.564 1.42745 182.033 1.9631 182.38L4.03232 183.58C4.1928 183.67 4.36053 183.745 4.53373 183.806C4.77967 183.887 5.0327 183.944 5.28938 183.976C5.77149 184.037 6.26033 184.021 6.73712 183.927L7.09729 183.835L7.32328 183.757C7.18077 183.814 7.02791 183.84 6.87461 183.834C6.72132 183.828 6.57101 183.79 6.43345 183.722C6.23668 183.594 6.0795 183.414 5.97966 183.202C5.87982 182.99 5.84132 182.754 5.86848 182.521V110.572C5.84932 110.246 5.93037 109.921 6.10077 109.642C6.27117 109.363 6.52278 109.143 6.82187 109.011L5.86848 108.453L0.663672 105.452C0.334251 105.997 0.149503 106.617 0.126953 107.253Z" fill="#F5562B"/>
<path opacity="0.05" d="M0.126953 107.253V179.202C0.159765 179.839 0.343307 180.459 0.662509 181.012C0.98171 181.564 1.42745 182.033 1.9631 182.38L4.03232 183.58C4.1928 183.67 4.36053 183.745 4.53373 183.806C4.77967 183.887 5.0327 183.944 5.28938 183.976C5.77149 184.037 6.26033 184.021 6.73712 183.927L7.09729 183.835L7.32328 183.757C7.18077 183.814 7.02791 183.84 6.87461 183.834C6.72132 183.828 6.57101 183.79 6.43345 183.722C6.23668 183.594 6.0795 183.414 5.97966 183.202C5.87982 182.99 5.84132 182.754 5.86848 182.521V110.572C5.84932 110.246 5.93037 109.921 6.10077 109.642C6.27117 109.363 6.52278 109.143 6.82187 109.011L5.86848 108.453L0.663672 105.452C0.334251 105.997 0.149503 106.617 0.126953 107.253Z" fill="black"/>
<path opacity="0.2" d="M5.86879 108.453L49.3363 124.696C50.8403 125.258 52.491 125.291 54.0162 124.789C55.5413 124.287 56.8499 123.28 57.7261 121.935L64.7035 111.236L99.5129 54.3785L66.0948 111.631L100.05 128.164C100.018 128.814 99.8208 129.446 99.4775 130L65.9888 111.808L57.8815 124.788C56.9811 126.231 55.5903 127.3 53.9647 127.8C52.3391 128.299 50.5878 128.195 49.0326 127.507L43.2487 124.958L6.41963 183.722C6.22286 183.594 6.06567 183.414 5.96583 183.202C5.866 182.99 5.82749 182.754 5.85466 182.521V181.321L43.0651 124.88L5.86879 108.453Z" fill="#F5562B"/>
<path opacity="0.05" d="M5.86879 108.453L49.3363 124.696C50.8403 125.258 52.491 125.291 54.0162 124.789C55.5413 124.287 56.8499 123.28 57.7261 121.935L64.7035 111.236L99.5129 54.3785L66.0948 111.631L100.05 128.164C100.018 128.814 99.8208 129.446 99.4775 130L65.9888 111.808L57.8815 124.788C56.9811 126.231 55.5903 127.3 53.9647 127.8C52.3391 128.299 50.5878 128.195 49.0326 127.507L43.2487 124.958L6.41963 183.722C6.22286 183.594 6.06567 183.414 5.96583 183.202C5.866 182.99 5.82749 182.754 5.85466 182.521V181.321L43.0651 124.88L5.86879 108.453Z" fill="black"/>
<path d="M23.0793 120.523C23.113 119.886 23.2962 119.267 23.614 118.715C23.9318 118.163 24.3752 117.693 24.9084 117.345L115.431 65.0847C115.999 64.7957 116.627 64.6451 117.264 64.6451C117.901 64.6451 118.529 64.7957 119.096 65.0847L121.165 66.2782C121.7 66.6261 122.145 67.0953 122.464 67.6475C122.783 68.1997 122.967 68.8194 123.002 69.4562V141.405C122.966 142.042 122.781 142.661 122.462 143.213C122.143 143.765 121.699 144.235 121.165 144.583L30.6499 196.843C30.08 197.129 29.4513 197.278 28.8138 197.278C28.1762 197.278 27.5475 197.129 26.9776 196.843L24.8872 195.621C24.356 195.271 23.914 194.801 23.5965 194.249C23.2789 193.697 23.0946 193.079 23.0581 192.443L23.0793 120.523Z" fill="#F5562B"/>
<g opacity="0.5">
<path d="M23.0793 120.523C23.113 119.886 23.2962 119.267 23.614 118.715C23.9318 118.163 24.3752 117.693 24.9084 117.345L115.431 65.0847C115.999 64.7957 116.627 64.6451 117.264 64.6451C117.901 64.6451 118.529 64.7957 119.096 65.0847L121.165 66.2782C121.7 66.6261 122.145 67.0953 122.464 67.6475C122.783 68.1997 122.967 68.8194 123.002 69.4562V141.405C122.966 142.042 122.781 142.661 122.462 143.213C122.143 143.765 121.699 144.235 121.165 144.583L30.6499 196.843C30.08 197.129 29.4513 197.278 28.8138 197.278C28.1762 197.278 27.5475 197.129 26.9776 196.843L24.8872 195.621C24.356 195.271 23.914 194.801 23.5965 194.249C23.2789 193.697 23.0946 193.079 23.0581 192.443L23.0793 120.523Z" fill="white"/>
</g>
<path d="M23.6089 118.715L28.8208 121.716L122.465 67.6482C122.154 67.0914 121.71 66.6206 121.172 66.2782L119.096 65.0917C118.53 64.7994 117.901 64.6469 117.264 64.6469C116.626 64.6469 115.998 64.7994 115.431 65.0917L24.8871 117.345C24.3506 117.684 23.9104 118.156 23.6089 118.715Z" fill="#F5562B"/>
<path opacity="0.6" d="M23.6089 118.715L28.8208 121.716L122.465 67.6482C122.154 67.0914 121.71 66.6206 121.172 66.2782L119.096 65.0917C118.53 64.7994 117.901 64.6469 117.264 64.6469C116.626 64.6469 115.998 64.7994 115.431 65.0917L24.8871 117.345C24.3506 117.684 23.9104 118.156 23.6089 118.715Z" fill="white"/>
<path opacity="0.1" d="M23.0723 120.515V192.465C23.1065 193.096 23.2886 193.711 23.6039 194.259C23.9191 194.807 24.3587 195.274 24.8872 195.621L26.9494 196.822C27.1123 196.911 27.2824 196.987 27.4579 197.048C27.7036 197.129 27.9567 197.186 28.2135 197.217C28.6956 197.279 29.1844 197.262 29.6613 197.168L30.0144 197.069C30.09 197.048 30.1633 197.02 30.2333 196.984C30.0952 197.045 29.9461 197.076 29.7954 197.076C29.6447 197.076 29.4957 197.045 29.3576 196.984C29.1614 196.855 29.0049 196.673 28.9052 196.46C28.8055 196.247 28.7665 196.011 28.7926 195.777V123.835C28.7734 123.508 28.8545 123.184 29.0249 122.905C29.1953 122.626 29.4469 122.406 29.746 122.274L28.7926 121.716L23.5807 118.715C23.2643 119.263 23.0896 119.882 23.0723 120.515Z" fill="black"/>
<path opacity="0.4" d="M28.8209 121.716L72.2884 137.959C73.7924 138.521 75.4431 138.554 76.9682 138.052C78.4934 137.55 79.802 136.543 80.6782 135.198L87.6627 124.506L122.472 67.6483L89.0539 124.901L123.009 141.434C122.977 142.084 122.78 142.716 122.437 143.27L88.9409 125.071L80.8265 138.051C79.9263 139.492 78.5368 140.56 76.9127 141.059C75.2887 141.559 73.539 141.456 71.9847 140.77L66.2079 138.22L29.3858 196.991C29.1897 196.862 29.0331 196.68 28.9334 196.467C28.8337 196.254 28.7948 196.018 28.8209 195.784V194.583L66.0313 138.143L28.8209 121.716Z" fill="#F5562B"/>
<path opacity="0.05" d="M28.8209 121.716L72.2884 137.959C73.7924 138.521 75.4431 138.554 76.9682 138.052C78.4934 137.55 79.802 136.543 80.6782 135.198L87.6627 124.506L122.472 67.6483L89.0539 124.901L123.009 141.434C122.977 142.084 122.78 142.716 122.437 143.27L88.9409 125.071L80.8265 138.051C79.9263 139.492 78.5368 140.56 76.9127 141.059C75.2887 141.559 73.539 141.456 71.9847 140.77L66.2079 138.22L29.3858 196.991C29.1897 196.862 29.0331 196.68 28.9334 196.467C28.8337 196.254 28.7948 196.018 28.8209 195.784V194.583L66.0313 138.143L28.8209 121.716Z" fill="black"/>
<path d="M46.2144 134.364L140.409 79.9858L144.18 82.161C144.695 82.4978 145.123 82.9505 145.431 83.4828C145.739 84.015 145.918 84.6121 145.953 85.226V154.717C145.919 155.332 145.741 155.929 145.433 156.462C145.125 156.994 144.696 157.447 144.18 157.782L53.5307 210.113C52.9832 210.389 52.3785 210.533 51.7652 210.533C51.1519 210.533 50.5472 210.389 49.9997 210.113L48.0011 208.962C47.4866 208.625 47.0583 208.172 46.7504 207.64C46.4426 207.108 46.2638 206.511 46.2285 205.897L46.2144 134.364Z" fill="#F5562B"/>
<path opacity="0.2" d="M46.2144 134.364L140.409 79.9858L144.18 82.161C144.695 82.4978 145.123 82.9505 145.431 83.4828C145.739 84.015 145.918 84.6121 145.953 85.226V154.717C145.919 155.332 145.741 155.929 145.433 156.462C145.125 156.994 144.696 157.447 144.18 157.782L53.5307 210.113C52.9832 210.389 52.3785 210.533 51.7652 210.533C51.1519 210.533 50.5472 210.389 49.9997 210.113L48.0011 208.962C47.4866 208.625 47.0583 208.172 46.7504 207.64C46.4426 207.108 46.2638 206.511 46.2285 205.897L46.2144 134.364Z" fill="black"/>
<path d="M139.894 73.87L140.275 73.6582L138.813 72.8107C138.69 72.7367 138.56 72.6752 138.425 72.6271L96.97 57.2598C96.3995 57.0738 95.785 57.072 95.2134 57.2545C94.6418 57.437 94.1421 57.7946 93.785 58.2768L47.4149 125.996C46.6896 127.161 46.2762 128.494 46.2144 129.866V134.357L47.6268 135.198L140.381 79.9788V75.4802C140.373 74.9083 140.205 74.3501 139.894 73.87Z" fill="#F5562B"/>
<path opacity="0.1" d="M95.7061 58.6158C95.5215 58.7603 95.3596 58.9317 95.2258 59.1242L48.8487 126.843C48.4677 127.442 48.1774 128.094 47.9871 128.778L46.5747 127.945C46.6792 127.596 46.8042 127.255 46.949 126.921C47.0126 126.78 47.0761 126.645 47.1467 126.511L47.1821 126.448C47.2555 126.306 47.3381 126.169 47.4292 126.038L93.7993 58.3191C93.8692 58.2188 93.9471 58.1243 94.0323 58.0367L94.2795 57.8107L95.7061 58.6158Z" fill="black"/>
<path opacity="0.35" d="M140.261 73.6511C140.136 73.5748 140.003 73.511 139.865 73.4604L98.4036 58.0932C97.9478 57.9416 97.4609 57.9087 96.9888 57.9977C96.5168 58.0866 96.0752 58.2945 95.7059 58.6016L94.2935 57.7683C94.6658 57.4641 95.1085 57.2581 95.581 57.1693C96.0536 57.0805 96.5409 57.1116 96.9982 57.2598L138.453 72.62C138.588 72.6706 138.719 72.7345 138.841 72.8107L140.261 73.6511Z" fill="white"/>
<path opacity="0.2" d="M93.7852 58.2768C93.8568 58.1779 93.9347 58.0835 94.0182 57.9943C93.9313 58.0805 93.8532 58.1751 93.7852 58.2768Z" fill="black"/>
<path d="M95.2259 59.1101L48.8488 126.829C48.1288 127.997 47.7181 129.329 47.6553 130.699V135.198L141.85 80.8192V76.3276C141.817 75.7183 141.613 75.1306 141.262 74.6312C140.911 74.1319 140.428 73.7409 139.866 73.5028L98.4039 58.1002C97.8355 57.9096 97.2213 57.9047 96.65 58.0862C96.0787 58.2678 95.5799 58.6264 95.2259 59.1101Z" fill="#F5562B"/>
<path opacity="0.05" d="M141.85 76.3135C141.831 75.7502 141.658 75.2029 141.349 74.7316L47.987 128.764C47.7887 129.386 47.6793 130.033 47.6621 130.685V135.184L141.857 80.805L141.85 76.3135Z" fill="black"/>
<path d="M137.825 57.2033C137.843 57.0147 137.813 56.8244 137.736 56.6511C137.66 56.4778 137.539 56.3274 137.387 56.2146L134.505 54.555C134.331 54.4768 134.14 54.446 133.95 54.4659C133.76 54.4857 133.579 54.5555 133.425 54.668L56.165 99.2937C55.719 99.5833 55.3478 99.9741 55.0814 100.434C54.8151 100.894 54.6613 101.411 54.6325 101.942V194.456C54.6115 194.646 54.6417 194.837 54.7199 195.011C54.7982 195.185 54.9216 195.335 55.0774 195.445L57.9446 197.104C58.1184 197.182 58.3094 197.213 58.4989 197.195C58.6884 197.176 58.8698 197.109 59.0251 196.999L136.299 152.401C136.743 152.11 137.112 151.719 137.377 151.259C137.642 150.799 137.795 150.283 137.825 149.753V57.2033Z" fill="#F0F0F0"/>
<path d="M59.0323 197.034L136.299 152.401C136.743 152.11 137.112 151.719 137.377 151.259C137.642 150.799 137.795 150.283 137.825 149.753V57.2034C137.825 56.2288 137.118 55.8333 136.299 56.3206L59.0323 100.946C58.5884 101.237 58.2191 101.629 57.9541 102.089C57.6892 102.549 57.536 103.065 57.5068 103.595V196.109C57.5068 197.104 58.1919 197.5 59.0323 197.034Z" fill="#FAFAFA"/>
<path d="M108.552 109.463C108.478 110.509 108.284 111.542 107.973 112.542C107.694 113.441 107.32 114.308 106.857 115.127C106.456 115.844 105.967 116.508 105.402 117.105C104.935 117.603 104.388 118.02 103.785 118.34C103.128 118.772 102.342 118.961 101.56 118.877C101.106 118.784 100.698 118.534 100.409 118.171C100.24 118.538 100.063 118.905 99.8795 119.273C99.6817 119.665 99.4451 120.036 99.1733 120.381C98.8682 120.775 98.52 121.132 98.1351 121.448C97.6689 121.835 97.1594 122.167 96.6168 122.436C96.0385 122.778 95.3609 122.913 94.6959 122.818C94.1117 122.686 93.6037 122.328 93.2834 121.822C92.8453 121.141 92.5542 120.376 92.4289 119.576C92.2421 118.461 92.1781 117.329 92.2382 116.201C92.2853 114.956 92.4389 113.718 92.6973 112.5C92.9319 111.404 93.2701 110.333 93.7072 109.301C94.0919 108.397 94.6005 107.551 95.2184 106.787C95.7509 106.116 96.417 105.562 97.1747 105.162C97.4262 104.985 97.7111 104.861 98.0121 104.796C98.3131 104.732 98.624 104.729 98.9261 104.788C99.3119 104.961 99.6298 105.256 99.83 105.629V105.247C99.8462 104.925 99.9355 104.611 100.091 104.329C100.214 104.069 100.41 103.85 100.656 103.701L102.168 102.931C102.25 102.876 102.348 102.852 102.446 102.863C102.544 102.873 102.635 102.917 102.704 102.987C102.785 103.085 102.845 103.197 102.881 103.319C102.916 103.441 102.926 103.568 102.909 103.693L102.57 112.669C102.542 113.347 102.669 113.792 102.952 114.004C103.1 114.107 103.276 114.161 103.456 114.161C103.637 114.161 103.813 114.107 103.961 114.004C104.405 113.753 104.762 113.374 104.985 112.917C105.326 112.24 105.516 111.498 105.543 110.742C105.614 109.958 105.663 109.153 105.699 108.319C105.734 107.486 105.734 106.716 105.699 106.01C105.681 104.742 105.491 103.483 105.134 102.267C104.912 101.41 104.416 100.648 103.721 100.099C103.027 99.6333 102.181 99.449 101.355 99.5833C100.147 99.7723 98.9803 100.171 97.9091 100.763C96.7804 101.346 95.7507 102.104 94.8583 103.008C93.9425 103.948 93.1456 104.996 92.4854 106.13C91.8003 107.326 91.2463 108.593 90.8329 109.908C90.3993 111.265 90.0943 112.66 89.9218 114.075C89.8724 114.463 89.83 114.958 89.7947 115.572C89.7594 116.186 89.7312 116.822 89.7029 117.486C89.6747 118.15 89.6535 118.792 89.6394 119.414C89.6252 120.035 89.6394 120.523 89.6394 120.897C89.6708 122.037 89.8756 123.166 90.2467 124.244C90.5143 125.079 91.0023 125.825 91.6591 126.405C92.2814 126.921 93.0683 127.197 93.8766 127.182C94.9256 127.147 95.9505 126.859 96.8639 126.342C97.5806 125.979 98.2719 125.569 98.9331 125.113C99.4775 124.736 99.9943 124.32 100.48 123.87C100.884 123.482 101.266 123.072 101.624 122.641C101.942 122.239 102.231 121.85 102.492 121.469C102.754 121.088 102.888 120.883 103.022 120.72C103.159 120.545 103.336 120.405 103.538 120.311L105.656 119.209C105.736 119.149 105.832 119.117 105.932 119.117C106.031 119.117 106.128 119.149 106.207 119.209C106.363 119.336 106.426 119.583 106.391 119.965C106.367 120.214 106.29 120.454 106.165 120.671C105.734 121.469 105.247 122.316 104.71 123.199C104.148 124.117 103.51 124.987 102.803 125.798C102.006 126.7 101.134 127.534 100.197 128.291C99.1033 129.167 97.9197 129.924 96.6662 130.551C95.3276 131.323 93.8116 131.734 92.2665 131.744C91.1068 131.71 89.9984 131.259 89.145 130.473C88.2448 129.581 87.5904 128.472 87.2453 127.253C86.7874 125.748 86.5495 124.186 86.5391 122.613C86.5391 122.232 86.5391 121.709 86.5391 121.045C86.5391 120.388 86.5744 119.696 86.6026 118.976C86.6309 118.256 86.6662 117.564 86.7015 116.914C86.7368 116.264 86.7721 115.742 86.8074 115.367C86.9852 113.495 87.3495 111.645 87.895 109.845C88.4464 107.979 89.1994 106.18 90.1408 104.477C91.071 102.788 92.2099 101.222 93.5306 99.8164C94.8191 98.4269 96.3418 97.2747 98.0292 96.4124C99.5515 95.5348 101.255 95.0178 103.008 94.9011C104.205 94.8531 105.375 95.265 106.278 96.0522C107.183 96.947 107.808 98.0854 108.079 99.3291C108.473 100.912 108.682 102.535 108.7 104.167C108.7 104.873 108.7 105.727 108.651 106.702C108.601 107.677 108.615 108.651 108.552 109.463ZM95.2891 114.633C95.1659 115.632 95.3122 116.647 95.7128 117.571C96.0447 118.15 96.5532 118.277 97.2312 117.917C98.0027 117.49 98.5926 116.797 98.8908 115.967C99.3173 114.838 99.542 113.643 99.5546 112.436C99.6727 111.429 99.5317 110.408 99.145 109.47C98.8201 108.877 98.2975 108.764 97.5843 109.131C96.8265 109.57 96.2522 110.267 95.967 111.095C95.5413 112.217 95.312 113.404 95.2891 114.604V114.633Z" fill="#F5562B"/>
<path d="M57.4997 196.13C57.4858 196.302 57.511 196.476 57.5733 196.637C57.6357 196.799 57.7336 196.944 57.8599 197.062L55.0844 195.466C54.9274 195.357 54.8025 195.208 54.723 195.034C54.6435 194.86 54.6122 194.668 54.6325 194.477V101.963C54.6499 101.431 54.8057 100.913 55.0844 100.459L57.9517 102.112C57.6726 102.568 57.5169 103.088 57.4997 103.623V196.13Z" fill="#E0E0E0"/>
<path d="M143.566 155.636C143.538 155.686 143.505 155.733 143.467 155.777L104.209 143.362C102.718 142.704 101.041 142.606 99.4838 143.086C97.927 143.566 96.5956 144.592 95.7343 145.975L53.764 208.333L52.2103 209.23C52.0373 209.351 51.8368 209.427 51.6271 209.45C51.4174 209.473 51.2052 209.444 51.0098 209.364L94.1665 145.099C95.0308 143.719 96.3618 142.696 97.9172 142.215C99.4726 141.734 101.149 141.828 102.641 142.479L143.566 155.636Z" fill="#F5562B"/>
<path opacity="0.4" d="M91.8643 152.062L91.9632 151.977L53.764 208.333L52.2103 209.23C52.0365 209.349 51.8361 209.424 51.6268 209.447C51.4174 209.47 51.2056 209.442 51.0098 209.364L90.353 151.13L91.8643 152.062Z" fill="white"/>
<path opacity="0.4" d="M143.566 155.636C143.538 155.686 143.505 155.733 143.467 155.777L104.209 143.362C102.719 142.702 101.04 142.604 99.4831 143.084C97.9259 143.564 96.5946 144.591 95.7343 145.975L94.1807 145.071C95.0461 143.692 96.3785 142.671 97.9344 142.194C99.4903 141.717 101.166 141.816 102.655 142.472L143.566 155.636Z" fill="white"/>
<path d="M145.918 84.781C145.833 84.2726 145.565 84.1313 145.212 84.3714C145.037 84.5017 144.884 84.659 144.76 84.8375L144.562 85.1129L105.826 143.997L100.042 152.055C99.6697 152.525 99.1764 152.884 98.6153 153.094C98.0541 153.304 97.4463 153.358 96.857 153.249L91.8641 152.062L53.7285 138.037C53.4722 137.984 53.208 137.984 52.9517 138.037C52.8521 138.057 52.755 138.088 52.6621 138.128L54.0745 137.295L90.6141 150.713L95.4234 152.429C96.0127 152.54 96.621 152.487 97.1825 152.277C97.7439 152.067 98.2371 151.707 98.6084 151.236L104.392 143.185L143.319 84.0254C143.438 83.8642 143.586 83.7276 143.757 83.6228L140.388 81.6807L141.801 80.8686L144.131 82.2104C144.585 82.4984 144.977 82.8742 145.284 83.3156C145.59 83.757 145.806 84.2552 145.918 84.781Z" fill="#F5562B"/>
<path opacity="0.4" d="M105.826 143.997L100.042 152.055C99.6694 152.525 99.1761 152.884 98.6149 153.094C98.0538 153.304 97.4459 153.358 96.8567 153.249L91.8638 152.062L91.9626 151.977L92.2028 151.596L95.4725 152.373C96.0618 152.484 96.6701 152.431 97.2316 152.221C97.7931 152.01 98.2862 151.65 98.6576 151.179L104.385 143.213L105.826 143.997Z" fill="white"/>
<path opacity="0.1" d="M144.18 82.1469L141.85 80.8051L140.438 81.6172L143.806 83.5593C143.635 83.6625 143.486 83.7995 143.368 83.9618L104.442 143.121L104.385 143.199L105.798 143.983L144.534 85.0918L144.731 84.8164C144.856 84.6379 145.009 84.4805 145.183 84.3503C145.529 84.1101 145.798 84.2514 145.889 84.7599C145.792 84.2327 145.591 83.7302 145.298 83.2816C145.004 82.833 144.624 82.4472 144.18 82.1469Z" fill="black"/>
<path d="M54.5475 139.16L46.2354 134.364V205.897C46.2707 206.511 46.4495 207.108 46.7573 207.64C47.0652 208.172 47.4935 208.625 48.008 208.962L50.0065 210.113C50.5541 210.389 51.1588 210.533 51.7721 210.533C52.3854 210.533 52.9901 210.389 53.5376 210.113L54.5334 209.541L54.5475 139.16Z" fill="#F5562B"/>
<path opacity="0.15" d="M54.5475 139.16L46.2354 134.364V205.897C46.2707 206.511 46.4495 207.108 46.7573 207.64C47.0652 208.172 47.4935 208.625 48.008 208.962L50.0065 210.113C50.5541 210.389 51.1588 210.533 51.7721 210.533C52.3854 210.533 52.9901 210.389 53.5376 210.113L54.5334 209.541L54.5475 139.16Z" fill="black"/>
<path d="M145.953 85.2259V154.71C145.931 155.346 145.741 155.965 145.402 156.504C145.139 156.959 144.786 157.356 144.364 157.669L144.294 157.705C144.258 157.733 144.22 157.759 144.181 157.782L53.531 210.113C53.3578 210.236 53.1563 210.314 52.9453 210.338C52.7342 210.363 52.5203 210.334 52.3234 210.254C52.173 210.166 52.0462 210.044 51.9539 209.896C51.8616 209.748 51.8066 209.58 51.7937 209.407C51.7862 209.301 51.7862 209.195 51.7937 209.089V139.597C51.778 139.349 51.8229 139.1 51.9247 138.872C52.0264 138.644 52.182 138.445 52.3779 138.291C52.5738 138.136 52.8042 138.032 53.0494 137.987C53.2945 137.941 53.547 137.956 53.7852 138.03L91.9208 152.055L96.9137 153.241C97.503 153.351 98.1108 153.297 98.672 153.087C99.2332 152.877 99.7264 152.517 100.099 152.048L105.883 143.99L144.619 85.1059L144.816 84.8304C145.417 83.9265 145.953 84.096 145.953 85.2259Z" fill="#F5562B"/>
<path d="M144.18 157.782L144.301 157.705L144.364 157.662C144.787 157.353 145.141 156.958 145.402 156.504C145.736 155.974 145.926 155.365 145.953 154.739L105.833 144.004L132.669 164.407L144.18 157.782Z" fill="#F5562B"/>
<path opacity="0.2" d="M144.18 157.782L144.301 157.705L144.364 157.662C144.787 157.353 145.141 156.958 145.402 156.504C145.736 155.974 145.926 155.365 145.953 154.739L105.833 144.004L132.669 164.407L144.18 157.782Z" fill="black"/>
<path d="M51.7579 209.089C51.732 209.315 51.7699 209.544 51.8672 209.75C51.9645 209.956 52.1175 210.131 52.3088 210.254C52.505 210.336 52.7187 210.366 52.9299 210.343C53.1411 210.319 53.3429 210.243 53.5164 210.12L84.7382 192.09L91.8709 152.055L51.7579 207.931V209.089Z" fill="#F5562B"/>
<path opacity="0.15" d="M95.7127 145.932L52.3088 210.254C52.1175 210.131 51.9645 209.956 51.8672 209.75C51.7699 209.544 51.732 209.315 51.7579 209.089V207.938L94.1308 145.085L95.7127 145.932Z" fill="black"/>
<path d="M145.402 156.504C145.141 156.958 144.787 157.353 144.364 157.662L144.301 157.705L53.5309 210.113C53.3573 210.236 53.1555 210.312 52.9443 210.336C52.7332 210.359 52.5195 210.329 52.3232 210.247L95.7343 145.918C96.6035 144.528 97.9444 143.499 99.5113 143.017C101.078 142.536 102.766 142.636 104.265 143.298L145.402 156.504Z" fill="#F5562B"/>
<path opacity="0.15" d="M46.5463 127.931L47.9587 128.764C47.7585 129.39 47.6468 130.042 47.6268 130.699V135.191L46.2144 134.357V129.859C46.235 129.204 46.3467 128.555 46.5463 127.931Z" fill="black"/>
<path d="M54.1239 137.267L52.6833 138.1L51.2285 137.26L47.6479 135.198L49.0392 134.371L54.1239 137.267Z" fill="#F5562B"/>
<path opacity="0.1" d="M54.1877 137.295L49.0394 134.371L47.627 135.198L51.2075 137.26L52.6623 138.1L52.9377 138.015C53.194 137.963 53.4582 137.963 53.7145 138.015L56.6665 139.124L89.9363 151.377L90.4589 150.607L54.1877 137.295Z" fill="black"/>
<path d="M159.746 61.2429L184.724 45.2471L195.734 48.7782L159.746 61.2429Z" fill="#F5562B"/>
<path d="M159.746 61.2429L181.335 43.2344L176.539 37.6977L159.746 61.2429Z" fill="#F5562B"/>
<path d="M181.335 43.2344V47.4152L159.746 61.2429L181.335 43.2344Z" fill="#F5562B"/>
<path opacity="0.25" d="M181.335 43.2344V47.4152L159.746 61.2429L181.335 43.2344Z" fill="black"/>
<path d="M184.936 42.8884C184.83 42.8884 184.726 42.8563 184.638 42.7963C184.55 42.7364 184.482 42.6513 184.443 42.5522C184.404 42.453 184.396 42.3445 184.42 42.2407C184.444 42.1369 184.498 42.0427 184.576 41.9703C185.316 41.2859 185.999 40.5419 186.617 39.7457C186.658 39.6865 186.71 39.6362 186.771 39.5979C186.831 39.5595 186.899 39.5339 186.97 39.5226C187.041 39.5113 187.114 39.5146 187.183 39.5322C187.253 39.5498 187.318 39.5813 187.375 39.6249C187.432 39.6686 187.48 39.7233 187.515 39.7859C187.55 39.8485 187.572 39.9176 187.58 39.989C187.588 40.0605 187.581 40.1327 187.56 40.2013C187.539 40.27 187.504 40.3336 187.457 40.3884C186.803 41.2325 186.08 42.0214 185.296 42.7471C185.197 42.8362 185.069 42.8864 184.936 42.8884ZM188.912 37.6129C188.829 37.6144 188.746 37.595 188.672 37.5564C188.61 37.5257 188.555 37.483 188.51 37.4307C188.464 37.3785 188.43 37.3177 188.408 37.252C188.386 37.1863 188.378 37.117 188.383 37.048C188.389 36.9791 188.408 36.9118 188.439 36.8502C189.056 35.6207 189.53 34.3246 189.851 32.9872C189.884 32.8505 189.97 32.7324 190.09 32.6589C190.21 32.5854 190.354 32.5625 190.491 32.5953C190.627 32.6281 190.745 32.7138 190.819 32.8337C190.892 32.9535 190.915 33.0977 190.883 33.2344C190.55 34.6506 190.052 36.023 189.4 37.3234C189.354 37.4129 189.284 37.4876 189.198 37.5388C189.112 37.5901 189.013 37.6158 188.912 37.6129ZM190.847 30.1483C190.778 30.1455 190.709 30.1291 190.646 30.1C190.583 30.0708 190.526 30.0294 190.479 29.9783C190.432 29.9271 190.395 29.8671 190.371 29.8018C190.347 29.7364 190.336 29.667 190.339 29.5974C190.339 29.3079 190.339 29.0254 190.339 28.7429C190.338 27.6519 190.246 26.5628 190.063 25.4872C190.051 25.4186 190.053 25.3482 190.068 25.2802C190.083 25.2121 190.111 25.1477 190.151 25.0906C190.191 25.0335 190.242 24.9849 190.301 24.9475C190.36 24.9102 190.425 24.8848 190.494 24.8728C190.634 24.8503 190.776 24.8836 190.891 24.9656C191.006 25.0476 191.084 25.1716 191.109 25.3107C191.3 26.4448 191.396 27.5928 191.398 28.7429C191.398 29.0395 191.398 29.3432 191.398 29.6398C191.395 29.7094 191.379 29.7777 191.35 29.8409C191.321 29.9042 191.279 29.961 191.228 30.0082C191.177 30.0555 191.117 30.0921 191.052 30.1162C190.986 30.1402 190.917 30.1511 190.847 30.1483ZM189.71 22.5141C189.6 22.514 189.492 22.4792 189.402 22.4146C189.312 22.35 189.244 22.2588 189.209 22.1539C188.752 20.852 188.178 19.5944 187.493 18.3969C187.432 18.2757 187.418 18.1361 187.455 18.0054C187.491 17.8747 187.575 17.7625 187.69 17.6906C187.811 17.6279 187.951 17.6134 188.083 17.6501C188.214 17.6868 188.326 17.772 188.397 17.8884C189.113 19.144 189.711 20.4632 190.183 21.8291C190.211 21.8965 190.225 21.969 190.224 22.0419C190.222 22.1149 190.206 22.1868 190.175 22.2531C190.145 22.3195 190.101 22.3787 190.046 22.4273C189.992 22.4758 189.928 22.5126 189.859 22.5353C189.806 22.534 189.754 22.5269 189.703 22.5141H189.71ZM185.996 15.7274C185.915 15.7271 185.836 15.7085 185.764 15.673C185.691 15.6376 185.628 15.5861 185.579 15.5226C184.732 14.4265 183.801 13.3971 182.796 12.4435C182.732 12.4015 182.677 12.3461 182.636 12.2809C182.595 12.2157 182.569 12.1423 182.559 12.0659C182.55 11.9896 182.557 11.912 182.58 11.8386C182.603 11.7652 182.642 11.6978 182.694 11.6411C182.747 11.5844 182.81 11.5397 182.881 11.5101C182.952 11.4806 183.029 11.4669 183.106 11.47C183.183 11.4731 183.258 11.4929 183.327 11.5281C183.395 11.5633 183.455 11.613 183.503 11.6737C184.547 12.6655 185.515 13.7349 186.398 14.8728C186.472 14.9817 186.504 15.1145 186.485 15.2451C186.467 15.3757 186.401 15.4948 186.299 15.5791C186.215 15.6622 186.106 15.7144 185.988 15.7274H185.996ZM180.466 10.3036C180.351 10.3041 180.24 10.2669 180.148 10.1977C179.035 9.36234 177.873 8.59585 176.666 7.9025C176.551 7.83071 176.468 7.71794 176.432 7.58691C176.397 7.45587 176.412 7.3163 176.476 7.19629C176.545 7.07842 176.658 6.99244 176.79 6.95679C176.922 6.92114 177.063 6.93867 177.182 7.00561C178.425 7.72002 179.623 8.51011 180.77 9.37143C180.858 9.43813 180.924 9.53112 180.957 9.63723C180.99 9.74334 180.989 9.85719 180.954 9.96265C180.919 10.0681 180.852 10.1598 180.761 10.2248C180.671 10.2898 180.563 10.3248 180.452 10.3248L180.466 10.3036ZM124.964 8.25561C124.847 8.25653 124.733 8.21867 124.64 8.14795C124.547 8.07724 124.48 7.97763 124.449 7.86471C124.419 7.75178 124.426 7.63189 124.471 7.52374C124.515 7.41559 124.595 7.32528 124.696 7.26691C125.925 6.56069 127.196 5.89685 128.488 5.28245C128.552 5.25262 128.62 5.23554 128.689 5.23218C128.759 5.22883 128.829 5.23926 128.894 5.26288C128.96 5.2865 129.02 5.32285 129.072 5.36984C129.123 5.41682 129.165 5.47352 129.195 5.53668C129.226 5.59955 129.243 5.66797 129.247 5.73788C129.251 5.80778 129.241 5.87775 129.217 5.94362C129.193 6.00949 129.157 6.06993 129.109 6.12134C129.062 6.17275 129.004 6.21408 128.94 6.2429C127.676 6.84318 126.426 7.4929 125.226 8.18499C125.144 8.23228 125.052 8.25668 124.957 8.25561H124.964ZM173.806 6.35589C173.728 6.35725 173.651 6.34032 173.58 6.30646C172.323 5.69911 171.031 5.1412 169.731 4.63979C169.664 4.61495 169.602 4.57661 169.55 4.52713C169.498 4.47764 169.456 4.41804 169.428 4.35196C169.399 4.28588 169.385 4.2147 169.385 4.14277C169.385 4.07084 169.399 3.99966 169.428 3.93358C169.453 3.86607 169.491 3.80434 169.54 3.75213C169.59 3.69993 169.65 3.65835 169.716 3.62994C169.782 3.60152 169.853 3.58686 169.925 3.58686C169.997 3.58685 170.068 3.6015 170.134 3.6299C171.455 4.13838 172.775 4.71041 174.061 5.33188C174.167 5.38526 174.252 5.47275 174.302 5.58031C174.353 5.68787 174.365 5.80926 174.338 5.92496C174.312 6.04066 174.247 6.14398 174.154 6.21829C174.061 6.2926 173.946 6.3336 173.827 6.33471L173.806 6.35589ZM131.949 4.94346C131.842 4.94162 131.739 4.9085 131.651 4.84824C131.563 4.78797 131.495 4.7032 131.455 4.60448C131.426 4.53839 131.412 4.46721 131.412 4.39528C131.412 4.32335 131.426 4.25218 131.455 4.1861C131.483 4.12002 131.525 4.06042 131.577 4.01093C131.629 3.96144 131.691 3.92311 131.758 3.89826C133.079 3.38273 134.442 2.90956 135.805 2.48583C135.94 2.44556 136.085 2.46052 136.209 2.5274C136.333 2.59428 136.425 2.70762 136.465 2.84248C136.505 2.97733 136.491 3.12266 136.424 3.24649C136.357 3.37033 136.243 3.46251 136.109 3.50278C134.774 3.89826 133.439 4.36437 132.147 4.86578C132.084 4.89077 132.017 4.90278 131.949 4.90109V4.94346ZM166.553 3.53103C166.502 3.54112 166.449 3.54112 166.398 3.53103C165.07 3.12849 163.707 2.77539 162.344 2.47878C162.274 2.46208 162.208 2.43176 162.15 2.38954C162.092 2.34732 162.042 2.29403 162.005 2.23272C161.928 2.10888 161.905 1.95987 161.938 1.81846C161.972 1.67705 162.061 1.55483 162.184 1.47867C162.308 1.40252 162.457 1.37868 162.599 1.41239C164.011 1.71606 165.381 2.07623 166.737 2.4929C166.804 2.51307 166.866 2.54628 166.92 2.59063C166.974 2.63498 167.019 2.68958 167.052 2.75129C167.085 2.813 167.105 2.8806 167.112 2.95019C167.118 3.01977 167.111 3.08997 167.09 3.15674C167.056 3.26486 166.988 3.35931 166.897 3.42656C166.805 3.49381 166.695 3.53038 166.582 3.53103H166.553ZM139.364 2.60589C139.245 2.60582 139.129 2.5653 139.035 2.49094C138.941 2.41657 138.876 2.31272 138.849 2.19629C138.819 2.05873 138.845 1.91503 138.92 1.79615C138.995 1.67728 139.114 1.59272 139.251 1.56069C140.628 1.2429 142.041 0.974534 143.453 0.769731C143.524 0.753994 143.598 0.753044 143.669 0.76693C143.74 0.780816 143.808 0.809246 143.868 0.850449C143.928 0.891652 143.979 0.944746 144.017 1.00643C144.056 1.06811 144.081 1.13705 144.092 1.20896C144.102 1.28087 144.098 1.35422 144.079 1.42443C144.06 1.49463 144.027 1.56021 143.982 1.61705C143.937 1.6739 143.88 1.7208 143.816 1.75484C143.752 1.78889 143.681 1.80934 143.609 1.81493C142.196 2.01973 140.84 2.28103 139.484 2.59883L139.364 2.60589ZM159.011 1.79375H158.933C157.556 1.58894 156.151 1.44064 154.76 1.34883C154.686 1.35084 154.613 1.33742 154.544 1.30944C154.476 1.28146 154.414 1.23954 154.363 1.18636C154.312 1.13318 154.273 1.06991 154.248 1.0006C154.222 0.931298 154.212 0.857487 154.217 0.783896C154.222 0.710306 154.242 0.638557 154.276 0.573248C154.311 0.507938 154.358 0.450507 154.416 0.40463C154.474 0.358754 154.54 0.325446 154.612 0.306838C154.683 0.28823 154.757 0.284731 154.83 0.296569C156.243 0.388377 157.655 0.536685 159.068 0.741488C159.198 0.762928 159.316 0.832462 159.398 0.936409C159.48 1.04036 159.52 1.17118 159.51 1.30314C159.5 1.4351 159.441 1.55864 159.345 1.64943C159.249 1.74023 159.122 1.79171 158.99 1.79375H159.011ZM147.062 1.41239C146.921 1.41801 146.784 1.36759 146.681 1.27224C146.578 1.17688 146.517 1.04439 146.511 0.903914C146.505 0.763439 146.556 0.626486 146.651 0.523182C146.747 0.419878 146.879 0.358686 147.02 0.353067C148.432 0.240073 149.88 0.176514 151.299 0.176514C151.44 0.176514 151.574 0.232319 151.674 0.33165C151.773 0.430981 151.829 0.5657 151.829 0.706175C151.829 0.84665 151.773 0.981369 151.674 1.0807C151.574 1.18003 151.44 1.23584 151.299 1.23584C149.887 1.23584 148.474 1.29939 147.104 1.41239H147.062Z" fill="#E0E0E0"/>
</svg>
