<svg width="232" height="300" viewBox="0 0 232 300" fill="none" xmlns="http://www.w3.org/2000/svg">
<path d="M116 323C92.3011 323 71.7204 318.328 54.2581 308.983C37.0452 299.638 23.6989 286.359 14.2194 269.145C4.73978 251.685 0 231.274 0 207.913V61.1023H54.2581V207.913C54.2581 221.192 56.7527 232.873 61.7419 242.955C66.9806 252.792 74.215 260.415 83.4452 265.825C92.9247 270.989 103.901 273.571 116.374 273.571C128.847 273.571 139.699 270.989 148.929 265.825C158.159 260.415 165.269 252.792 170.258 242.955C175.497 232.873 178.116 221.192 178.116 207.913V61.1023H232V207.913C232 231.028 227.26 251.316 217.781 268.776C208.301 285.99 194.83 299.392 177.368 308.983C160.155 318.328 139.699 323 116 323ZM74.4645 30.1173C66.9806 30.1173 60.6194 27.6581 55.3806 22.7399C50.1419 17.8216 47.5226 11.4278 47.5226 3.55862C47.5226 -4.06468 50.1419 -10.3355 55.3806 -15.2537C60.6194 -20.4179 66.9806 -23 74.4645 -23C82.1978 -23 88.5591 -20.4179 93.5484 -15.2537C98.7871 -10.3355 101.406 -4.06468 101.406 3.55862C101.406 11.4278 98.7871 17.8216 93.5484 22.7399C88.5591 27.6581 82.1978 30.1173 74.4645 30.1173ZM158.284 30.1173C150.8 30.1173 144.439 27.6581 139.2 22.7399C133.961 17.8216 131.342 11.4278 131.342 3.55862C131.342 -4.06468 133.961 -10.3355 139.2 -15.2537C144.439 -20.4179 150.8 -23 158.284 -23C166.017 -23 172.378 -20.4179 177.368 -15.2537C182.606 -10.3355 185.226 -4.06468 185.226 3.55862C185.226 11.4278 182.606 17.8216 177.368 22.7399C172.378 27.6581 166.017 30.1173 158.284 30.1173Z" fill="#F3DD8E"/>
</svg>
